<?xml version="1.0" standalone="no"?>
<!DOCTYPE svg PUBLIC "-//W3C//DTD SVG 20010904//EN"
 "http://www.w3.org/TR/2001/REC-SVG-20010904/DTD/svg10.dtd">
<svg version="1.0" xmlns="http://www.w3.org/2000/svg"
 width="341.000000pt" height="341.000000pt" viewBox="0 0 341.000000 341.000000"
 preserveAspectRatio="xMidYMid meet">
<metadata>
Created by potrace 1.14, written by Peter Selinger 2001-2017
</metadata>
<g transform="translate(0.000000,341.000000) scale(0.100000,-0.100000)"
fill="#000000" stroke="none">
<path d="M1515 2994 c-478 -73 -879 -424 -1004 -879 -33 -121 -51 -241 -51
-350 l0 -70 -83 -1 c-117 -2 -250 -46 -349 -116 -39 -27 -35 -45 5 -18 37 25
161 85 196 95 21 6 19 1 -21 -51 -25 -33 -82 -99 -127 -149 -44 -49 -80 -94
-80 -100 0 -14 158 155 226 242 45 57 63 73 91 78 19 3 36 4 38 2 8 -8 -26
-88 -55 -131 -49 -71 -162 -266 -194 -336 -33 -72 -57 -152 -57 -190 0 -14
-12 -42 -26 -63 -14 -21 -24 -43 -22 -49 7 -21 68 84 68 117 0 42 28 122 78
222 52 102 142 256 148 251 2 -3 -5 -45 -16 -94 -41 -187 -45 -387 -10 -529 5
-22 10 -81 10 -132 0 -78 -3 -94 -18 -102 -26 -14 -77 8 -166 72 -43 31 -82
57 -87 57 -19 0 -8 -16 24 -35 17 -10 58 -38 90 -61 32 -24 66 -46 77 -49 24
-8 355 -228 390 -260 39 -35 131 -95 146 -95 20 0 18 48 -5 106 -11 27 -24 85
-30 128 -13 88 -47 161 -96 204 -51 46 -71 81 -125 232 -29 80 -69 172 -89
205 -29 49 -36 71 -37 120 -1 33 -2 66 -3 73 -1 7 -13 24 -28 38 l-26 24 23
88 c12 48 32 111 42 140 19 50 22 53 51 50 28 -3 32 -8 42 -53 23 -95 75 -263
104 -333 133 -322 428 -590 761 -692 158 -48 204 -55 388 -55 94 0 172 -1 172
-2 0 -2 -16 -24 -36 -50 -19 -25 -48 -72 -64 -102 -15 -31 -56 -93 -90 -138
l-61 -83 -256 -82 c-141 -46 -246 -84 -235 -86 23 -4 454 132 488 153 11 7 58
21 105 30 46 9 102 25 124 34 66 29 240 227 336 383 28 45 47 62 109 97 110
61 197 129 289 226 80 85 80 86 65 43 -21 -60 -88 -182 -140 -256 -44 -60 -46
-62 -89 -62 -52 0 -65 -12 -182 -165 -43 -55 -160 -185 -261 -290 -101 -104
-179 -191 -174 -193 16 -5 344 336 423 438 146 192 141 187 222 194 153 14
245 29 332 57 73 22 227 65 350 97 16 4 12 -4 -16 -34 -20 -22 -53 -59 -75
-83 -63 -69 -151 -134 -274 -201 -63 -35 -189 -110 -280 -168 -244 -156 -278
-176 -407 -242 -66 -33 -108 -59 -96 -60 34 0 235 107 403 216 194 126 331
208 440 265 73 38 105 64 226 185 124 124 148 143 202 163 71 27 152 75 152
92 0 9 -24 -2 -95 -48 -11 -7 -41 -19 -65 -28 -60 -22 -283 -86 -286 -82 -2 1
11 24 28 51 16 27 58 106 93 176 35 69 82 149 104 178 23 28 41 56 41 61 0 5
-24 23 -52 39 -52 29 -162 136 -207 201 -22 31 -23 33 -4 27 135 -43 443 -84
443 -59 0 6 -46 13 -107 16 -71 4 -151 16 -233 37 -69 17 -135 29 -148 27 -17
-3 -21 0 -18 12 17 57 28 210 22 315 -22 376 -226 740 -528 944 -264 178 -581
252 -883 206z m1465 -1567 l52 -68 -12 -52 c-41 -177 -190 -448 -325 -593 -39
-42 -42 -43 -118 -50 l-79 -6 47 68 c58 84 117 200 141 279 11 33 34 82 52
110 47 70 106 197 132 285 23 76 37 103 50 98 4 -2 31 -34 60 -71z m-2647
-149 c-4 -46 -1 -61 27 -113 56 -103 67 -127 105 -240 49 -143 56 -156 124
-229 64 -69 84 -115 101 -234 5 -40 16 -85 24 -100 21 -41 28 -72 18 -72 -6 0
-60 37 -121 82 -61 46 -165 118 -231 161 -104 67 -119 81 -105 91 26 19 31
177 8 274 -22 94 -24 302 -4 412 l13 74 24 -27 c19 -23 22 -34 17 -79z m2835
-28 c4 0 15 -7 26 -15 17 -13 16 -16 -22 -62 -22 -26 -59 -86 -82 -133 -65
-137 -154 -290 -167 -290 -7 0 -56 -14 -109 -31 -53 -17 -98 -29 -100 -26 -2
2 10 21 27 43 60 74 170 248 210 331 32 67 69 167 95 261 2 8 24 -4 59 -33 31
-25 59 -45 63 -45z m-987 -628 c-34 -63 -189 -262 -257 -329 -57 -55 -73 -62
-227 -97 l-29 -7 46 63 c25 35 62 92 81 128 51 95 120 179 152 185 16 3 73 21
128 39 123 41 118 40 106 18z"/>
<path d="M0 582 c0 -6 31 -33 69 -61 99 -71 184 -154 242 -233 51 -70 111
-117 178 -139 20 -7 107 -43 195 -80 87 -38 168 -69 180 -69 24 0 -112 63
-303 140 -140 57 -190 91 -243 167 -40 59 -126 145 -203 204 -83 63 -115 83
-115 71z"/>
<path d="M3379 564 c-53 -57 -264 -218 -415 -318 -238 -157 -356 -240 -344
-244 6 -2 35 13 63 33 29 21 104 71 167 112 226 148 307 205 433 309 70 59
127 112 127 120 0 19 -3 18 -31 -12z"/>
<path d="M3343 64 c-34 -35 -56 -64 -49 -64 17 0 116 99 116 116 0 18 5 22
-67 -52z"/>
</g>
</svg>
